<?xml version="1.0" standalone="no"?>
<!DOCTYPE svg PUBLIC "-//W3C//DTD SVG 20010904//EN"
 "http://www.w3.org/TR/2001/REC-SVG-20010904/DTD/svg10.dtd">
<svg version="1.0" xmlns="http://www.w3.org/2000/svg"
 width="200.000000pt" height="200.000000pt" viewBox="0 0 200.000000 200.000000"
 preserveAspectRatio="xMidYMid meet">

<g transform="translate(0.000000,200.000000) scale(0.100000,-0.100000)"
fill="#000000" stroke="none">
<path d="M1092 1548 c-8 -8 -12 -63 -12 -180 l0 -168 -448 0 c-335 0 -451 -3
-460 -12 -17 -17 -17 -359 0 -376 9 -9 125 -12 460 -12 l448 0 0 -168 c0 -171
4 -192 39 -192 9 0 174 121 366 268 287 220 350 272 350 292 0 20 -63 72 -350
292 -192 147 -357 268 -365 268 -9 0 -21 -5 -28 -12z m362 -333 c151 -115 275
-212 275 -215 0 -6 -546 -423 -560 -428 -5 -2 -9 59 -9 140 0 99 -4 148 -12
156 -9 9 -125 12 -460 12 l-448 0 0 120 0 120 448 0 c335 0 451 3 460 12 8 8
12 57 12 156 0 81 4 142 9 140 5 -1 133 -97 285 -213z"/>
</g>
</svg>
